<svg width="72" height="72" viewBox="0 0 72 72" fill="none" xmlns="http://www.w3.org/2000/svg">
<path d="M36 72C55.8822 72 72 55.8823 72 36C72 16.1177 55.8822 0 36 0C16.1178 0 0 16.1177 0 36C0 55.8823 16.1178 72 36 72Z" fill="#E1C5BF"/>
<path d="M32.5 15C34.9853 15 37 13.2091 37 11C37 8.79086 34.9853 7 32.5 7C30.0147 7 28 8.79086 28 11C28 13.2091 30.0147 15 32.5 15Z" fill="#2A2A2A"/>
<path d="M40 57C42.2091 57 44 55.2091 44 53C44 50.7909 42.2091 49 40 49C37.7909 49 36 50.7909 36 53C36 55.2091 37.7909 57 40 57Z" fill="#2A2A2A"/>
<path d="M56 33C57.6568 33 59 31.6569 59 30C59 28.3431 57.6568 27 56 27C54.3431 27 53 28.3431 53 30C53 31.6569 54.3431 33 56 33Z" fill="#2A2A2A"/>
<path d="M21.5 49C26.7467 49 31 44.7467 31 39.5C31 34.2533 26.7467 30 21.5 30C16.2533 30 12 34.2533 12 39.5C12 44.7467 16.2533 49 21.5 49Z" fill="#2A2A2A"/>
</svg>
