<svg width="150" height="150" viewBox="0 0 150 150" fill="none" xmlns="http://www.w3.org/2000/svg">
<path d="M73.5625 70.2501H62.225V51.2626H75.675C82.9875 51.2626 87.1375 54.5251 87.1375 60.4251C87.1375 66.7251 82.3062 70.2501 73.55 70.2501H73.5625ZM75.5875 77.7876H62.2312V98.7126H76.175C85.2937 98.7126 90.125 95.0563 90.125 88.1813C90.125 81.3063 85.1562 77.7876 75.5875 77.7876V77.7876ZM150 71.1876V78.8001C142.95 79.4751 138.644 84.7001 136.088 92.9751C133.544 101.219 133.194 111.331 133.463 119.138C133.744 127.263 127.413 134.763 118.856 134.763H31.1563C22.5938 134.763 16.2625 127.263 16.55 119.138C16.8188 111.331 16.4687 101.219 13.925 92.9751C11.3625 84.7001 7.05 79.4751 0 78.8001V71.1876C7.05 70.5126 11.3688 65.2876 13.9187 57.0126C16.4687 48.7688 16.8188 38.6563 16.5438 30.8501C16.2625 22.7251 22.5938 15.2251 31.1563 15.2251H118.856C127.419 15.2251 133.744 22.7251 133.463 30.8501C133.194 38.6563 133.544 48.7688 136.088 57.0126C138.644 65.2876 142.95 70.5126 150 71.1876ZM100.456 88.7938C100.456 80.3313 94.5 74.2126 85.6562 73.2438V72.8876C92.1562 71.8313 97.2562 65.7939 97.2562 59.0564C97.2562 49.4501 89.675 43.1938 78.1187 43.1938H52.1187V106.769H78.25C92.1125 106.769 100.456 99.9813 100.456 88.7938V88.7938Z" fill="white"/>
</svg>
