<svg width="150" height="150" viewBox="0 0 150 150" fill="none" xmlns="http://www.w3.org/2000/svg">
<path d="M74.9351 149.621L31.6462 137.604L21.9993 29.4043H128.001L118.344 137.587L74.9351 149.621V149.621Z" fill="white"/>
<path d="M110.076 130.698L118.328 38.251H75V140.423L110.076 130.698V130.698Z" fill="#B9B9B9" fill-opacity="0.5"/>
<path d="M44.1145 78.3806L45.3037 91.6508H75V78.3806H44.1145ZM41.7245 51.5215L42.9307 64.7917H75V51.5215H41.7245V51.5215ZM75 112.845L74.9418 112.86L60.1629 108.87L59.218 98.2862H45.8966L47.7557 119.122L74.9389 126.668L75 126.652V112.845Z" fill="#1B1B1B"/>
<path d="M105.801 78.3806L108.196 51.5215H74.9543V64.7917H93.6532L92.4457 78.3806H74.9543V91.6508H91.2951L89.7544 108.861L74.9539 112.856V126.662L102.159 119.122L102.358 116.88L105.477 81.9441L105.801 78.3806V78.3806Z" fill="#292929"/>
</svg>
