<svg width="150" height="150" viewBox="0 0 150 150" fill="none" xmlns="http://www.w3.org/2000/svg">
<path d="M53.125 12.5C42.7697 12.5 34.375 20.8947 34.375 31.25C34.375 41.6053 42.7697 50 53.125 50H96.875C107.231 50 115.625 41.6053 115.625 31.25C115.625 20.8947 107.231 12.5 96.875 12.5H53.125Z" fill="white"/>
<path d="M96.875 56.25C86.5194 56.25 78.125 64.6444 78.125 75C78.125 85.3556 86.5194 93.75 96.875 93.75C107.231 93.75 115.625 85.3556 115.625 75C115.625 64.6444 107.231 56.25 96.875 56.25Z" fill="white"/>
<path d="M34.375 75C34.375 64.6444 42.7697 56.25 53.125 56.25H71.875V93.75H53.125C42.7697 93.75 34.375 85.3556 34.375 75Z" fill="white"/>
<path d="M53.125 100C42.7697 100 34.375 108.394 34.375 118.75C34.375 129.106 42.7697 137.5 53.125 137.5C63.4806 137.5 71.875 129.106 71.875 118.75V100H53.125Z" fill="white"/>
</svg>
