<svg width="150" height="150" viewBox="0 0 150 150" fill="none" xmlns="http://www.w3.org/2000/svg">
<path d="M24.3125 97.9565L39.0938 2.88148C39.2007 2.17672 39.5273 1.52367 40.027 1.0153C40.5267 0.506933 41.1741 0.169158 41.8769 0.0500595C42.5797 -0.0690389 43.3022 0.0366103 43.9415 0.351967C44.5808 0.667324 45.1043 1.17631 45.4375 1.80648L61.3312 31.6252L24.3125 97.9565ZM129.281 121.025L115.206 33.5315C115.103 32.9182 114.833 32.3452 114.426 31.8749C114.019 31.4047 113.49 31.0554 112.898 30.8651C112.306 30.6748 111.673 30.6509 111.068 30.796C110.463 30.9411 109.91 31.2495 109.469 31.6877L20.7188 121.025L69.825 148.7C71.3394 149.551 73.0473 149.998 74.7844 149.998C76.5214 149.998 78.2293 149.551 79.7438 148.7L129.281 121.025ZM89.375 44.6752L78 22.9127C77.713 22.3655 77.2818 21.9071 76.753 21.5873C76.2242 21.2675 75.618 21.0985 75 21.0985C74.382 21.0985 73.7758 21.2675 73.247 21.5873C72.7182 21.9071 72.287 22.3655 72 22.9127L22.0625 112.4L89.375 44.6752Z" fill="white"/>
</svg>
