<svg width="150" height="150" viewBox="0 0 150 150" fill="none" xmlns="http://www.w3.org/2000/svg">
<path d="M75 1.85625C33.5672 1.85625 0 35.4516 0 76.8563C0 110.011 21.4875 138.113 51.2672 148.027C55.0313 148.734 56.3906 146.414 56.3906 144.408C56.3906 142.627 56.3484 137.916 56.3203 131.663C35.4469 136.181 31.05 121.58 31.05 121.58C27.6328 112.936 22.7016 110.616 22.7016 110.616C15.9141 105.98 23.2406 106.078 23.2406 106.078C30.7594 106.589 34.7156 113.789 34.7156 113.789C41.4047 125.264 52.2656 121.945 56.5641 120.014C57.2203 115.181 59.175 111.858 61.3031 110.006C44.6531 108.127 27.1453 101.681 27.1453 72.9422C27.1453 64.7344 30.0516 58.05 34.8562 52.8C34.0266 50.9203 31.4859 43.2797 35.5172 32.9484C35.5172 32.9484 41.7938 30.9469 56.1422 40.6406C62.1469 38.9766 68.5219 38.1469 74.8922 38.1047C81.2672 38.1469 87.6375 38.9813 93.6422 40.6406C107.906 30.9469 114.178 32.9484 114.178 32.9484C118.205 43.2797 115.664 50.9156 114.933 52.8C119.691 58.05 122.597 64.7391 122.597 72.9422C122.597 101.747 105.066 108.098 88.3969 109.931C91.0031 112.177 93.4453 116.794 93.4453 123.802C93.4453 133.833 93.3516 141.914 93.3516 144.356C93.3516 146.306 94.6641 148.65 98.5266 147.895C128.527 138.084 149.991 109.959 149.991 76.8516C149.991 35.4469 116.423 1.85156 74.9906 1.85156L75 1.85625Z" fill="white"/>
</svg>
