<svg width="150" height="150" viewBox="0 0 150 150" fill="none" xmlns="http://www.w3.org/2000/svg">
<path d="M58.7876 78.1276H74.9999V65.5534H57.6653L58.7876 78.1276ZM25.9822 32.8071L34.9089 132.926L74.9759 144.049L115.081 132.932L124.018 32.8071H25.9822V32.8071ZM107.43 126.557L74.9999 135.547V122.805L74.9803 122.811L49.8266 115.828L48.0676 96.1115H60.3943L61.3072 106.34L74.983 110.034L75.0002 110.028V90.4071H47.5582L44.2459 53.2736H74.9999V40.9941H115.068L107.43 126.557Z" fill="white"/>
<path opacity="0.8" d="M90.1148 90.4069H75V110.028L88.6898 106.333L90.1148 90.4069ZM75 40.9939V53.2734H105.754L104.655 65.5532H75V78.1274H103.537L100.168 115.828L75 122.805V135.547L107.43 126.557L115.068 40.9937H75V40.9939Z" fill="white"/>
<g opacity="0.2">
<path opacity="0.2" d="M75 53.2734H44.2456L47.5579 90.4069H75V78.1274H58.7877L57.6653 65.5532H75V53.2734Z" fill="white"/>
<path opacity="0.2" d="M75 110.028L74.9827 110.033L61.3072 106.34L60.3943 96.1113H48.0674L49.8264 115.827L74.9804 122.81L75 122.805V110.028Z" fill="white"/>
</g>
</svg>
