<svg width="150" height="150" viewBox="0 0 150 150" fill="none" xmlns="http://www.w3.org/2000/svg">
<path d="M12.3307 26.4023V149.71H135.638V26.4023H12.3307ZM106.19 82.2534C109.961 82.2534 113.177 82.9787 115.837 84.4294C118.496 85.8801 120.745 88.2495 122.582 91.5377L113.588 97.3404C112.621 95.5996 111.557 94.3424 110.397 93.5687C109.236 92.795 107.834 92.4081 106.19 92.4081C104.545 92.4081 103.216 92.8675 102.2 93.7863C101.185 94.705 100.677 95.8898 100.677 97.3404C100.677 98.9845 101.209 100.339 102.273 101.402C103.24 102.273 105.077 103.288 107.785 104.449L110.687 105.609C116.006 107.93 119.778 110.3 122.002 112.718C124.71 115.619 126.064 119.342 126.064 123.888C126.064 128.917 124.226 132.882 120.551 135.783C117.07 138.588 112.476 139.99 106.77 139.99C101.644 139.99 97.2437 138.878 93.5687 136.654C90.1837 134.526 87.5725 131.673 85.735 128.095L95.1644 122.727C96.5184 124.952 98.0174 126.644 99.6615 127.805C101.596 129.062 103.917 129.691 106.625 129.691C108.946 129.691 110.832 129.159 112.282 128.095C113.733 127.031 114.458 125.629 114.458 123.888C114.458 122.147 113.733 120.696 112.282 119.536C111.219 118.762 109.139 117.698 106.044 116.344L103.143 115.039C98.501 113.104 95.116 110.928 92.9884 108.511C90.4739 105.706 89.2166 102.079 89.2166 97.6306C89.2166 93.1818 90.764 89.5068 93.8588 86.6054C96.9536 83.7041 101.064 82.2534 106.19 82.2534ZM67.8917 82.9787H79.4971V122.582C79.4971 128.385 77.853 132.785 74.5648 135.783C71.5667 138.588 67.4081 139.99 62.089 139.99C57.7369 139.99 54.0135 138.975 50.9188 136.944C48.3075 135.106 46.2282 132.592 44.6808 129.4L54.2553 123.743C55.3191 125.774 56.2863 127.176 57.1567 127.95C58.3172 129.11 59.8162 129.691 61.6538 129.691C63.6847 129.691 65.1837 129.207 66.1509 128.24C67.3114 127.079 67.8917 125.145 67.8917 122.437V82.9787Z" fill="white"/>
</svg>
