<svg width="150" height="150" viewBox="0 0 150 150" fill="none" xmlns="http://www.w3.org/2000/svg">
<path d="M9.5875 36.7123C-3.68125 55.7748 -2.0375 80.5685 8.10625 100.812C8.3375 101.306 8.59375 101.775 8.84375 102.244C8.9875 102.569 9.15 102.869 9.325 103.175C9.40625 103.35 9.51875 103.531 9.61875 103.694C9.78125 104.019 9.95625 104.331 10.125 104.644L11.1062 106.3C11.2875 106.606 11.4625 106.906 11.6687 107.212C12.0125 107.8 12.4187 108.381 12.775 108.969C12.9375 109.212 13.0875 109.456 13.2687 109.7C13.8749 110.652 14.5213 111.578 15.2062 112.475C15.6937 113.144 16.1812 113.794 16.7062 114.444C16.875 114.681 17.0625 114.919 17.2375 115.156L18.6187 116.837C18.7875 117.031 18.9562 117.256 19.1375 117.456C19.75 118.194 20.4 118.912 21.05 119.637C21.05 119.65 21.0687 119.662 21.0812 119.681C21.8728 120.682 22.7603 121.603 23.7312 122.431C24.2312 122.944 24.7312 123.456 25.2625 123.956L25.8937 124.562C26.5875 125.212 27.2812 125.862 28.0125 126.487C28.025 126.487 28.0312 126.5 28.0437 126.506L28.4 126.819C29.0375 127.375 29.6812 127.931 30.3375 128.444L31.1187 129.1C31.65 129.525 32.2 129.931 32.7437 130.35L33.5937 131C34.175 131.437 34.7937 131.869 35.3875 132.294C35.6062 132.45 35.825 132.606 36.05 132.75L36.2312 132.894L37.9875 134.05L38.7375 134.55C39.6562 135.137 40.5687 135.694 41.475 136.244C41.7375 136.375 42 136.519 42.2437 136.669C42.9187 137.056 43.6187 137.45 44.3 137.812C44.675 138.025 45.0625 138.206 45.45 138.4C45.9187 138.662 46.4062 138.919 46.9062 139.181C47.0271 139.218 47.1443 139.266 47.2562 139.325C47.4625 139.419 47.6562 139.519 47.8562 139.619C48.6062 139.994 49.3875 140.35 50.2 140.706C50.35 140.769 50.5125 140.831 50.675 140.919C51.575 141.312 52.475 141.687 53.4062 142.056C53.6187 142.119 53.8437 142.225 54.0625 142.306C54.9062 142.625 55.775 142.95 56.6312 143.256L56.9437 143.369C57.9 143.694 58.8437 144.006 59.8125 144.306C60.0375 144.369 60.2687 144.45 60.5062 144.512C61.5 144.812 62.4625 145.169 63.4625 145.362C127.587 157.05 146.225 106.806 146.225 106.806C130.569 127.194 102.787 132.569 76.475 126.587C75.5 126.362 74.525 126.05 73.5437 125.762C72.3543 125.411 71.1728 125.034 70 124.631L69.6125 124.481C68.7625 124.194 67.9437 123.875 67.1125 123.556C66.8865 123.462 66.6572 123.377 66.425 123.3C65.5062 122.931 64.6125 122.55 63.725 122.156C63.5312 122.094 63.3687 122.006 63.175 121.931C62.4199 121.583 61.6678 121.229 60.9187 120.869C60.6875 120.769 60.4812 120.662 60.2562 120.544C59.6687 120.269 59.0812 119.956 58.5062 119.656C58.1114 119.466 57.7217 119.266 57.3375 119.056C56.6312 118.681 55.925 118.275 55.2187 117.887C55.0062 117.737 54.7625 117.612 54.5187 117.475C53.5972 116.929 52.6846 116.369 51.7812 115.794C51.5299 115.637 51.2839 115.473 51.0437 115.3C50.3805 114.891 49.7302 114.462 49.0937 114.012C48.875 113.869 48.675 113.712 48.45 113.556C47.8292 113.126 47.2166 112.684 46.6125 112.231C46.35 112.019 46.0687 111.819 45.7875 111.606C45.2375 111.175 44.6812 110.762 44.1312 110.306L43.3937 109.719C42.6859 109.148 41.9899 108.562 41.3062 107.962C41.2351 107.893 41.1577 107.83 41.075 107.775L38.9062 105.8L38.2812 105.212C37.7687 104.694 37.2437 104.194 36.7187 103.681L36.1125 103.056C35.4523 102.399 34.8083 101.726 34.1812 101.037L34.0875 100.937C33.425 100.212 32.7812 99.4748 32.1312 98.7248C31.9625 98.5311 31.8062 98.3248 31.6312 98.1186L30.2187 96.3873C29.4981 95.4634 28.7897 94.53 28.0937 93.5873C13.5 73.6623 8.21875 46.1623 19.9 23.6061L9.5875 36.7123ZM50.7562 20.6561C41.1375 34.4623 41.6812 52.9248 49.1687 67.5248C50.4062 69.9824 51.8203 72.3469 53.4 74.5998C54.8375 76.6623 56.425 79.0998 58.35 80.7623C59.0187 81.5248 59.7437 82.2623 60.5 83.0061L61.0625 83.5686C61.775 84.2561 62.5062 84.9311 63.25 85.5998L63.3437 85.6811C64.1867 86.4169 65.0495 87.1297 65.9312 87.8186C66.1437 87.9623 66.325 88.1311 66.5312 88.2748C67.4062 88.9498 68.2875 89.5998 69.2 90.2436L69.2937 90.2998C69.6812 90.5811 70.0937 90.8373 70.5312 91.1123C70.7062 91.2248 70.9062 91.3748 71.0937 91.4873C71.7562 91.9123 72.4062 92.3123 73.075 92.7186C73.1812 92.7623 73.275 92.8186 73.375 92.8623C73.9375 93.2061 74.55 93.5373 75.1375 93.8436C75.3437 93.9686 75.5437 94.0623 75.7562 94.1811C76.175 94.3873 76.5875 94.6061 76.9875 94.8186L77.1875 94.9061C78.0312 95.3186 78.8937 95.7061 79.7375 96.0936C79.95 96.1748 80.1312 96.2436 80.3125 96.3311C81.0062 96.6311 81.7125 96.9186 82.4062 97.1873C82.7187 97.2936 83.0125 97.4186 83.3062 97.5123C83.9437 97.7498 84.6125 97.9686 85.2437 98.1873L86.1187 98.4686C87.0312 98.7498 87.9562 99.1186 88.9187 99.2748C138.419 107.481 149.881 69.3561 149.881 69.3561C139.563 84.2061 119.594 91.2811 98.3125 85.7561C97.3715 85.5124 96.4378 85.2414 95.5125 84.9436C95.2125 84.8623 94.95 84.7686 94.6625 84.6811C94.0125 84.4561 93.3437 84.2373 92.7125 83.9998L91.8125 83.6623C91.1125 83.3811 90.4 83.1186 89.7187 82.8186C89.5062 82.7248 89.3125 82.6623 89.15 82.5686C88.275 82.1748 87.3937 81.7873 86.5437 81.3686L85.2562 80.6998L84.5125 80.3248C83.9375 80.0248 83.4062 79.7123 82.8562 79.3873C82.7231 79.3239 82.5938 79.253 82.4687 79.1748C81.8062 78.7623 81.1187 78.3623 80.4875 77.9373C80.275 77.8186 80.0812 77.6748 79.8812 77.5498L78.5812 76.6998C77.6812 76.0748 76.8 75.3998 75.9125 74.7498C75.7125 74.5686 75.5187 74.4186 75.325 74.2561C65.9687 66.8998 58.5875 56.8436 55.0875 45.4561C51.4 33.6186 52.2125 20.3436 58.5812 9.56856L50.7562 20.6561ZM85.375 8.6498C79.7 16.9748 79.1562 27.3123 83.0625 36.4936C87.2125 46.2436 95.7 53.8998 105.587 57.5248C105.994 57.6811 106.388 57.8123 106.806 57.9623L107.356 58.1311C107.931 58.3123 108.513 58.5248 109.106 58.6561C136.456 63.9311 143.856 44.6123 145.85 41.7748C139.338 51.1248 128.419 53.3686 115.025 50.1123C113.932 49.8392 112.856 49.5054 111.8 49.1123C110.488 48.6511 109.2 48.1212 107.944 47.5248C105.565 46.3719 103.305 44.9904 101.194 43.3998C89.1937 34.3123 81.7625 16.9623 89.5875 2.83105" fill="white"/>
</svg>
