<svg width="150" height="150" viewBox="0 0 150 150" fill="none" xmlns="http://www.w3.org/2000/svg">
<path d="M32.8125 19.8853V76.0986L41.51 81.7841L18.2281 117.188H76.7578L82.132 109.149L117.188 130.151V72.3724L108.655 67.1448L130.389 32.8125H72.5647L67.2546 40.3473L32.8125 19.8853ZM42.1875 36.3647L61.8347 48.0377L90.564 65.1123L47.7814 74.6796L42.1875 71.0266V36.3647ZM77.4353 42.1875H113.361L101.605 60.7544L75.3387 45.1538L77.4353 42.1875ZM94.4641 73.8556L71.7499 107.812H35.614L51.6541 83.4229L94.4641 73.8556ZM104.581 75.6409L107.812 77.6276V113.599L87.5244 101.459L104.581 75.6409Z" fill="white"/>
</svg>
