<svg width="150" height="150" viewBox="0 0 150 150" fill="none" xmlns="http://www.w3.org/2000/svg">
<path d="M150.806 146.325L147.631 143.3C146.063 141.231 144.394 139.4 142.575 137.731L142.544 137.706C140.677 136.011 138.738 134.398 136.725 132.869C135.113 131.761 132.896 130.425 130.075 128.863C127.756 127.819 125.944 125.988 124.963 123.713L124.938 123.65L124.638 123.5C125.963 123.369 127.175 123.125 128.338 122.781L128.194 122.819L131.756 121.838C133.231 121.375 134.938 121.075 136.706 121.006H136.744C138.606 120.931 140.363 120.631 142.038 120.138L141.881 120.175C142.69 119.975 143.521 119.748 144.375 119.494C145.229 119.24 145.961 119.013 146.569 118.813V117.756C145.965 116.852 145.233 115.819 144.375 114.656C143.556 113.544 142.638 112.575 141.606 111.731L141.575 111.706C138.954 109.39 136.24 107.148 133.431 104.981C130.956 103.05 128.15 101.081 125.238 99.2563L124.813 99.0063C123.275 97.9938 121.513 97.0563 119.656 96.2876L119.444 96.2126C117.577 95.4543 115.738 94.623 113.925 93.7188C113.319 93.4188 112.613 93.1563 111.881 92.9751L111.813 92.9626C111.081 92.8126 110.456 92.4376 110 91.9063L109.994 91.9001C109.131 90.7626 108.375 89.4688 107.775 88.0938L107.725 87.9688C107.121 86.5563 106.467 85.2001 105.763 83.9001C104.25 80.9751 102.788 78.0022 101.375 74.9813C99.9626 71.9605 98.6063 68.9355 97.3063 65.9063C96.4022 63.8897 95.5709 61.8751 94.8126 59.8626C93.9751 57.6501 93.0313 55.7563 91.9313 53.9751L92.0126 54.1188C89.3126 49.5188 86.6188 45.5938 83.6938 41.8626L83.8688 42.1001C80.9751 38.4501 77.9751 35.1876 74.7501 32.1626L74.7001 32.1188C71.5188 29.1313 68.0938 26.2813 64.5001 23.6438L64.1938 23.4251C60.4605 20.7126 56.3772 18.0418 51.9438 15.4126C50.1626 14.3626 48.0939 13.5063 45.9126 12.9563L45.7501 12.9188L38.7938 11.1813L34.8626 10.8813C33.5543 10.7813 32.2438 10.7313 30.9313 10.7313C30.0063 10.2438 29.2126 9.6626 28.5126 8.9876C27.8251 8.33135 27.0813 7.7126 26.3063 7.14385L26.2438 7.1001C22.4626 4.89385 18.0688 2.8751 13.4751 1.2876L12.9438 1.1251C11.7376 0.418848 10.2876 0.00634766 8.74385 0.00634766C7.64385 0.00634766 6.5876 0.218848 5.6251 0.600098L5.68135 0.581348C3.30635 1.5251 1.49385 3.44385 0.712598 5.83135L0.693848 5.89385C0.237598 6.96885 -0.0249023 8.2126 -0.0249023 9.5251C-0.0249023 11.8251 0.787598 13.9313 2.14385 15.5751L2.13135 15.5563C4.39801 18.5772 6.13551 20.9522 7.34385 22.6813C8.24801 23.8938 9.18135 25.1543 10.1438 26.4626C11.0251 27.6376 11.8063 28.9813 12.4376 30.4001L12.4876 30.5313C12.8376 31.2751 13.1438 32.1626 13.3688 33.0751L13.3876 33.1751C13.5876 34.0334 13.8397 34.9668 14.1438 35.9751C15.048 38.2918 15.9043 40.6668 16.7126 43.1001C17.5938 45.7563 18.5688 48.0063 19.7001 50.1501L19.5813 49.9001C20.1855 51.0084 20.7918 52.0918 21.4001 53.1501C22.0084 54.2084 22.6626 55.2418 23.3626 56.2501C23.7688 56.8626 24.2813 57.3688 24.8688 57.7626L24.8876 57.7751C25.5063 58.2251 25.9126 58.9313 25.9438 59.7313V59.7376C25.2313 60.7876 24.7501 62.0438 24.5876 63.4001L24.5813 63.4376C24.3626 65.0188 24.0501 66.4251 23.6251 67.7813L23.6751 67.5938C22.2813 71.7563 21.4813 76.5563 21.4813 81.5376C21.4813 83.1501 21.5626 84.7376 21.7313 86.3063L21.7126 86.1126C22.0876 92.1001 23.8938 97.6001 26.7876 102.363L26.7001 102.206C27.9313 104.05 29.2501 105.656 30.7063 107.125C31.7563 108.3 33.2813 109.038 34.9813 109.038C35.9313 109.038 36.8313 108.806 37.6188 108.394L37.5876 108.406C39.7751 107.619 41.3313 105.619 41.4438 103.238V103.225C41.7438 100.263 42.1938 97.6126 42.8126 95.0251L42.7313 95.4438C42.8813 95.0501 42.9688 94.6001 42.9688 94.1251C42.9688 94.0313 42.9626 93.9376 42.9563 93.8438V93.8563C42.9063 93.4022 43.1834 92.973 43.7876 92.5688V92.8688C44.3918 94.2813 45.0209 95.6918 45.6751 97.1001C46.3293 98.5084 47.0084 99.9188 47.7126 101.331C49.5563 104.138 51.5126 106.588 53.6626 108.844L53.6438 108.825C55.8001 111.15 58.1501 113.238 60.6876 115.081L60.8251 115.175C62.1501 116.188 63.3126 117.281 64.3626 118.475L64.3876 118.5C65.3751 119.663 66.5563 120.619 67.8876 121.338L67.9501 121.369V121.219H68.2501C68.0063 120.675 67.6126 120.238 67.1251 119.938L67.1126 119.931C66.6188 119.656 66.1938 119.381 65.7938 119.081L65.8251 119.1C64.9209 118.196 63.9876 117.188 63.0251 116.075C62.0626 114.963 61.1813 113.904 60.3813 112.9C58.2647 109.975 56.2459 106.919 54.3251 103.731C52.4043 100.544 50.5897 97.3043 48.8813 94.0126C48.073 92.4001 47.2918 90.7376 46.5376 89.0251C45.7834 87.3126 45.0522 85.6501 44.3438 84.0376C44.0376 83.4188 43.8251 82.7063 43.7438 81.9501V81.9188C43.7063 81.2001 43.2938 80.5813 42.6938 80.2626L42.6813 80.2563C41.9251 81.5438 41.0876 82.6563 40.1313 83.6626L40.1376 83.6563C39.1438 84.7001 38.3313 85.9313 37.7501 87.2813L37.7188 87.3626C36.8376 89.5001 36.1938 91.9813 35.9126 94.5751L35.9001 94.6938C35.6001 97.3647 35.298 100.111 34.9938 102.931L34.6938 103.081L34.5438 103.231C32.9188 102.9 31.5813 101.863 30.8563 100.463L30.8438 100.431C30.0855 98.9689 29.4064 97.5313 28.8064 96.1188C27.2564 92.1376 26.2938 87.5313 26.1626 82.7188V82.6626C26.1063 81.9001 26.0813 81.0063 26.0813 80.1126C26.0813 75.9501 26.7376 71.9376 27.9501 68.1751L27.8751 68.4501C28.1751 67.3418 28.8293 65.4751 29.8376 62.8501C30.8459 60.2251 31.048 58.4105 30.4438 57.4063C30.1313 56.3751 29.5501 55.5063 28.7876 54.8438L28.7813 54.8376C28.0188 54.1751 27.3251 53.4813 26.6876 52.7438L26.6689 52.7188C25.9647 51.7022 25.2855 50.6188 24.6313 49.4688C23.9772 48.3188 23.398 47.1855 22.8938 46.0688C21.8626 43.6813 20.8063 40.6876 19.9313 37.6126L19.7938 37.0563C18.8001 33.5251 17.6938 30.5376 16.3813 27.6626L16.5438 28.0626C15.8501 26.4876 15.0438 25.1251 14.1063 23.8813L14.1438 23.9313C13.1272 22.573 12.2188 21.2876 11.4188 20.0751C10.4022 18.7668 9.39385 17.5063 8.39385 16.2938C7.3751 15.0626 6.46885 13.6751 5.73135 12.1876L5.6751 12.0626C5.3751 11.4563 5.1126 10.7501 4.93135 10.0188L4.91885 9.9501C4.8501 9.73135 4.8126 9.4751 4.8126 9.21885C4.8126 8.70635 4.9626 8.2251 5.2251 7.8251L5.21885 7.8376C5.2876 7.4876 5.4501 7.18135 5.6751 6.93135C5.91885 6.7126 6.23135 6.5501 6.56885 6.48135H6.58135C7.1126 6.1376 7.75635 5.93135 8.45635 5.93135C8.98135 5.93135 9.4876 6.0501 9.93135 6.2626L9.9126 6.25635C11.2813 6.64385 12.3876 7.03135 13.4688 7.4751L13.2438 7.39385C15.1563 8.20218 16.9209 8.98343 18.5376 9.7376C20.4001 10.6251 21.9876 11.5626 23.4876 12.6063L23.3751 12.5313C24.1834 13.0355 24.9897 13.5897 25.7938 14.1938C26.598 14.798 27.4543 15.4043 28.3626 16.0126H30.4813C32.0938 16.0126 33.8063 16.0897 35.6188 16.2438C37.4501 16.3876 39.1438 16.7313 40.7563 17.2688L40.6064 17.2251C43.6126 18.1188 46.1938 19.1751 48.6438 20.4438L48.3876 20.3251C50.8584 21.5834 53.2022 22.9188 55.4188 24.3313C59.1001 26.6251 62.2813 28.9751 65.2751 31.5438L65.1688 31.4563C68.2938 34.1313 71.1313 36.8751 73.7938 39.7751L73.8563 39.8501C76.4563 42.6876 78.9376 45.7688 81.2063 49.0001L81.4001 49.2938C83.4876 52.2438 85.5938 55.6563 87.4876 59.1938L87.7501 59.7251C88.2563 60.6876 88.7688 61.8688 89.2126 63.0751L89.2813 63.2813C89.6855 64.4397 90.1376 65.6272 90.6376 66.8438C91.7459 69.3647 92.9334 71.9084 94.2001 74.4751C95.4668 77.0418 96.6543 79.5376 97.7626 81.9626L101.088 89.2188C102.256 91.7563 103.563 93.9438 105.081 95.9626L105.013 95.8688C106.281 97.2251 107.975 98.1751 109.875 98.5063L109.925 98.5126C112.225 99.0876 114.163 99.7376 116.038 100.506L115.744 100.4C116.638 100.806 117.788 101.238 118.969 101.619L119.219 101.688C120.544 102.094 121.694 102.631 122.75 103.306L122.694 103.275C124.738 104.419 126.469 105.544 128.119 106.769L127.988 106.675C129.7 107.933 131.413 109.121 133.125 110.238C133.933 110.842 135.29 111.723 137.194 112.881C139.098 114.04 140.106 115.123 140.219 116.131C139.506 116.106 138.663 116.088 137.819 116.088C134.744 116.088 131.719 116.288 128.756 116.675L129.106 116.638C125.756 117.088 122.719 117.906 119.863 119.075L120.113 118.988C119.406 119.294 118.563 119.575 117.688 119.794L117.569 119.819C116.681 119.95 115.994 120.663 115.906 121.55V121.556C116.288 122.031 116.594 122.581 116.8 123.181L116.813 123.219C117.025 123.856 117.281 124.406 117.594 124.919L117.575 124.881C118.319 126.2 119.119 127.338 120.019 128.388L119.994 128.356C120.875 129.444 121.869 130.388 122.969 131.194L123.013 131.225C124.029 132.033 125.088 132.865 126.188 133.719C127.194 134.506 128.331 135.281 129.513 135.981L129.663 136.063C131.438 137.15 133.5 138.188 135.65 139.056L135.938 139.156C138.275 140.094 140.281 141.181 142.144 142.475L142.044 142.406C143.256 143.111 144.465 143.892 145.669 144.75C146.873 145.608 148.031 146.44 149.144 147.244C149.6 147.694 150 148.194 150.338 148.738L150.356 148.769C150.925 149.419 151.713 149.863 152.606 149.975H152.625V149.675C152.075 149.256 151.669 148.675 151.475 148.006L151.469 147.981C151.313 147.344 151.081 146.788 150.769 146.275L150.781 146.3L150.806 146.325ZM34.7063 26.2938C33.898 26.2938 33.1418 26.3188 32.4376 26.3688C31.7188 26.4188 31.0501 26.5501 30.4188 26.7626L30.4751 26.7438V26.8938H30.7751C31.1793 27.498 31.6876 28.1772 32.3001 28.9313C32.9126 29.6855 33.4668 30.4168 33.9626 31.1251L36.3813 36.1126L36.6813 35.9626C37.3876 35.4501 37.9313 34.7626 38.2563 33.9563L38.2688 33.9251C38.5938 33.0563 38.7813 32.0438 38.7813 30.9938C38.7813 30.8813 38.7813 30.7688 38.7751 30.6563V30.6751C38.4938 30.4001 38.2626 30.0751 38.1001 29.7126L38.0938 29.6938L37.5876 28.5563C37.2563 28.0313 36.7939 27.6188 36.2501 27.3563L36.2313 27.3501C35.6438 27.0688 35.1438 26.7126 34.7063 26.2938V26.2938Z" fill="white"/>
</svg>
