<svg width="150" height="150" viewBox="0 0 150 150" fill="none" xmlns="http://www.w3.org/2000/svg">
<path d="M43.8125 63.7936H37.9125L34.6938 80.3436H39.9312C43.4062 80.3436 45.9938 79.6873 47.6938 78.3811C49.3938 77.0686 50.5375 74.8873 51.1312 71.8248C51.7062 68.8873 51.4438 66.8123 50.3563 65.6061C49.2625 64.3998 47.0875 63.7936 43.8125 63.7936V63.7936ZM75 35.5498C33.5813 35.5498 0 53.2123 0 74.9998C0 96.7873 33.5813 114.456 75 114.456C116.419 114.456 150 96.7873 150 74.9998C150 53.2123 116.419 35.5498 75 35.5498ZM54.625 82.1186C52.9937 83.6811 51.0312 84.856 48.8937 85.5623C46.7937 86.2373 44.1125 86.5873 40.8625 86.5873H33.4812L31.4375 97.0936H22.825L30.5125 57.5561H47.075C52.0563 57.5561 55.6875 58.8623 57.975 61.4811C60.2625 64.0936 60.95 67.7436 60.0375 72.4311C59.688 74.2859 59.0445 76.073 58.1312 77.7248C57.2375 79.3186 56.0687 80.7873 54.625 82.1186ZM79.775 86.5873L83.1688 69.0936C83.5625 67.1061 83.4125 65.7436 82.7438 65.0248C82.075 64.2998 80.6438 63.9373 78.45 63.9373H71.625L67.225 86.5936H58.675L66.3625 47.0498H74.9062L72.8625 57.5623H80.475C85.2688 57.5623 88.5687 58.3998 90.3875 60.0686C92.2062 61.7373 92.75 64.4436 92.0313 68.1873L88.4562 86.5873H79.775V86.5873ZM127.256 72.4311C126.912 74.2874 126.269 76.0754 125.35 77.7248C124.456 79.3186 123.288 80.7873 121.844 82.1186C120.212 83.6763 118.254 84.8525 116.112 85.5623C114.012 86.2373 111.331 86.5873 108.075 86.5873H100.7L98.6562 97.0998H90.0437L97.7313 57.5623H114.287C119.269 57.5623 122.9 58.8686 125.188 61.4873C127.475 64.0936 128.169 67.7436 127.256 72.4311V72.4311ZM111.038 63.7936H105.144L101.919 80.3436H107.156C110.638 80.3436 113.225 79.6873 114.919 78.3811C116.619 77.0686 117.762 74.8873 118.362 71.8248C118.937 68.8873 118.669 66.8123 117.581 65.6061C116.494 64.3998 114.306 63.7936 111.038 63.7936V63.7936Z" fill="white"/>
</svg>
