<svg width="150" height="150" viewBox="0 0 150 150" fill="none" xmlns="http://www.w3.org/2000/svg">
<g clip-path="url(#clip0_15_122)">
<path d="M73.2938 -0.000195312C67.2501 0.00605469 61.3313 0.537305 55.5813 1.5498L56.1938 1.4623C41.0501 4.1373 38.3063 9.73731 38.3063 20.0623V33.6998H74.0938V38.2436H24.8813C24.7563 38.2436 24.6126 38.2373 24.4688 38.2373C13.6126 38.2373 4.56885 45.9811 2.5501 56.2436L2.5251 56.3873C0.925098 61.8373 0.00634766 68.0998 0.00634766 74.5748C0.00634766 81.0498 0.925098 87.3123 2.64385 93.2311L2.5251 92.7561C5.06885 103.35 11.1438 110.894 21.5251 110.894H33.8313V94.5436C34.1126 82.3373 43.9688 72.5248 56.1688 72.3123H56.1876H91.9313C101.831 72.2311 109.825 64.1936 109.825 54.2811C109.825 54.2248 109.825 54.1748 109.825 54.1186V54.1248V20.0498C109.175 10.2936 101.613 2.4873 92.0251 1.45605L91.9376 1.4498C86.5251 0.518555 80.2938 -0.0126953 73.9438 -0.0126953C73.7188 -0.0126953 73.5001 -0.0126953 73.2751 -0.0126953H73.3063L73.2938 -0.000195312ZM53.9438 10.9686H54.0501C57.8188 10.9686 60.8688 14.0248 60.8688 17.7873C60.8688 21.5498 57.8126 24.6061 54.0501 24.6061C50.2938 24.6061 47.2438 21.5623 47.2313 17.8061C47.2313 17.7936 47.2313 17.7748 47.2313 17.7561C47.2313 14.0311 50.2313 11.0061 53.9438 10.9686H53.9501H53.9438Z" fill="white"/>
<path d="M114.294 38.2437V54.1312C114.156 66.4874 104.269 76.4937 91.9687 76.8187H91.9374H56.1937C46.2937 77.0249 38.3437 85.0811 38.3062 94.9999V129.081C38.3062 138.775 46.7374 144.481 56.1937 147.269C61.5374 149 67.6874 150 74.0687 150C80.4499 150 86.5999 149 92.3624 147.15L91.9374 147.269C100.937 144.662 109.825 139.406 109.825 129.081V115.431H74.0811V110.887H127.719C138.119 110.887 141.994 103.631 145.612 92.7499C147.362 87.3124 148.369 81.0562 148.369 74.5624C148.369 68.0687 147.362 61.8124 145.494 55.9437L145.612 56.3812C143.044 46.0312 138.112 38.2437 127.719 38.2437H114.294ZM94.1936 124.537H94.2999C98.0686 124.537 101.119 127.594 101.119 131.356C101.119 135.119 98.0624 138.175 94.2999 138.175C90.5312 138.175 87.4811 135.119 87.4811 131.356C87.4811 131.35 87.4811 131.337 87.4811 131.331C87.4811 131.319 87.4811 131.3 87.4811 131.287C87.4811 127.569 90.4811 124.556 94.1936 124.537V124.537Z" fill="white"/>
</g>
<defs>
<clipPath id="clip0_15_122">
<rect width="150" height="150" fill="white"/>
</clipPath>
</defs>
</svg>
