<svg width="24" height="24" viewBox="0 0 24 24" fill="none" xmlns="http://www.w3.org/2000/svg">
<path d="M12.0001 13.03C12.9859 13.03 13.7851 12.2308 13.7851 11.245C13.7851 10.2591 12.9859 9.45996 12.0001 9.45996C11.0143 9.45996 10.2151 10.2591 10.2151 11.245C10.2151 12.2308 11.0143 13.03 12.0001 13.03Z" fill="white"/>
<path d="M7.00199 14.7945L6.60699 14.6935C3.67299 13.9525 1.98999 12.6925 1.98999 11.2415C1.98999 9.78948 3.67399 8.53048 6.60699 7.78948L7.00199 7.68948L7.11299 8.08048C7.40953 9.10417 7.78947 10.1018 8.24899 11.0635L8.33399 11.2415L8.24899 11.4195C7.78899 12.3825 7.40799 13.3805 7.11299 14.4045L7.00199 14.7945V14.7945ZM6.42499 8.69948C4.19599 9.32748 2.82699 10.2855 2.82699 11.2415C2.82699 12.1955 4.19499 13.1545 6.42499 13.7815C6.69799 12.9135 7.02799 12.0645 7.40999 11.2415C7.02522 10.4171 6.69615 9.56787 6.42499 8.69948V8.69948ZM16.997 14.7945L16.887 14.4025C16.5897 13.3786 16.2094 12.3806 15.75 11.4185L15.665 11.2415L15.75 11.0625C16.21 10.1015 16.589 9.10248 16.887 8.07848L16.997 7.68848L17.392 7.78848C20.327 8.52948 22.009 9.78848 22.009 11.2415C22.009 12.6935 20.326 13.9525 17.392 14.6935L16.997 14.7945V14.7945ZM16.587 11.2415C16.987 12.1075 17.32 12.9595 17.574 13.7815C19.804 13.1545 21.173 12.1955 21.173 11.2415C21.173 10.2855 19.805 9.32848 17.574 8.69948C17.3013 9.5676 16.9716 10.4168 16.587 11.2415V11.2415Z" fill="white"/>
<path d="M6.41902 8.695L6.30902 8.305C5.48302 5.397 5.73302 3.314 6.99602 2.588C8.23102 1.873 10.218 2.718 12.299 4.853L12.583 5.145L12.299 5.436C11.5599 6.20469 10.8843 7.03207 10.279 7.91L10.166 8.072L9.97002 8.088C8.90561 8.1716 7.84978 8.34183 6.81302 8.597L6.41902 8.695V8.695ZM8.00102 3.166C7.77702 3.166 7.57902 3.215 7.41202 3.311C6.58402 3.788 6.43802 5.449 7.00802 7.691C7.89902 7.494 8.79802 7.353 9.70402 7.274C10.2285 6.53005 10.8007 5.8209 11.417 5.151C10.114 3.884 8.88402 3.166 8.00102 3.166V3.166ZM15.998 20.15C14.81 20.15 13.284 19.254 11.7 17.628L11.417 17.337L11.7 17.047C12.4393 16.2771 13.1151 15.4487 13.721 14.57L13.833 14.41L14.027 14.391C15.0918 14.3089 16.148 14.1393 17.185 13.884L17.58 13.784L17.691 14.175C18.513 17.081 18.264 19.167 17.003 19.893C16.6969 20.0665 16.3499 20.1553 15.998 20.15V20.15ZM12.583 17.33C13.885 18.597 15.116 19.316 15.998 19.316C16.223 19.316 16.421 19.266 16.587 19.171C17.416 18.693 17.563 17.029 16.991 14.787C16.101 14.985 15.201 15.127 14.293 15.206C13.7707 15.9511 13.1995 16.6607 12.583 17.33V17.33Z" fill="white"/>
<path d="M17.58 8.69544L17.185 8.59644C16.1481 8.34047 15.0918 8.17023 14.027 8.08744L13.833 8.07044L13.721 7.90844C13.116 7.03002 12.44 6.20259 11.7 5.43444L11.417 5.14344L11.7 4.85344C13.78 2.71944 15.766 1.87444 17.003 2.58844C18.265 3.31544 18.516 5.39844 17.691 8.30544L17.58 8.69544ZM14.293 7.27444C15.247 7.35944 16.151 7.50244 16.991 7.69144C17.562 5.44944 17.416 3.78844 16.587 3.31044C15.763 2.83344 14.212 3.56344 12.583 5.15144C13.199 5.82144 13.771 6.52944 14.293 7.27444ZM8.00101 20.1504C7.64914 20.1555 7.30227 20.0668 6.99601 19.8934C5.73301 19.1674 5.48301 17.0824 6.30801 14.1754L6.41601 13.7844L6.81101 13.8844C7.77501 14.1274 8.83701 14.2984 9.96901 14.3914L10.163 14.4104L10.276 14.5704C10.88 15.4484 11.556 16.2774 12.296 17.0474L12.58 17.3374L12.296 17.6284C10.713 19.2554 9.18701 20.1504 8.00101 20.1504V20.1504ZM7.00801 14.7884C6.43801 17.0304 6.58401 18.6944 7.41201 19.1724C8.23701 19.6424 9.78301 18.9174 11.417 17.3304C10.801 16.6603 10.2288 15.9512 9.70401 15.2074C8.7971 15.1272 7.89648 14.9873 7.00801 14.7884V14.7884Z" fill="white"/>
<path d="M11.9999 15.3127C11.3129 15.3127 10.6079 15.2837 9.89991 15.2247L9.70391 15.2077L9.59091 15.0457C9.19167 14.4716 8.81602 13.8815 8.46491 13.2767C8.1164 12.6704 7.79247 12.0502 7.49391 11.4177L7.40991 11.2407L7.49391 11.0617C7.79291 10.4297 8.11591 9.80972 8.46491 9.20372C8.81191 8.60772 9.19091 8.01172 9.59091 7.43372L9.70391 7.27372L9.89991 7.25572C11.2968 7.13872 12.701 7.13872 14.0979 7.25572L14.2919 7.27472L14.4049 7.43472C15.2047 8.58347 15.9071 9.79702 16.5049 11.0627L16.5879 11.2417L16.5049 11.4187C15.9088 12.6853 15.2063 13.899 14.4049 15.0467L14.2919 15.2087L14.0979 15.2257C13.3919 15.2827 12.6859 15.3127 11.9999 15.3127V15.3127ZM10.1659 14.4087C11.4009 14.5017 12.5989 14.5017 13.8329 14.4087C14.5218 13.3999 15.1342 12.341 15.6649 11.2407C15.1361 10.1395 14.5236 9.08038 13.8329 8.07272C12.6124 7.97872 11.3864 7.97872 10.1659 8.07272C9.47465 9.08001 8.86217 10.1392 8.33391 11.2407C8.86579 12.3404 9.47812 13.3992 10.1659 14.4087V14.4087Z" fill="white"/>
</svg>
