<svg width="150" height="150" viewBox="0 0 150 150" fill="none" xmlns="http://www.w3.org/2000/svg">
<path d="M146.875 9.65947C146.859 4.32012 142.527 0 137.188 0H12.8124C7.47336 0 3.14065 4.32012 3.12512 9.65947V110.938C3.12512 116.1 7.26272 121.875 12.8127 121.875H62.5002V143.75H46.875C45.1492 143.75 43.7499 145.149 43.7499 146.875C43.7499 148.601 45.1492 150 46.875 150H84.375C84.4281 150 84.4688 149.972 84.5218 149.972C84.6217 149.972 84.7125 150 84.8124 150H133.937C141.079 149.992 146.866 144.204 146.875 137.062V53.5626C146.868 52.7663 146.788 51.9724 146.634 51.1907C146.792 50.8134 146.873 50.4088 146.875 50.0001V9.65947V9.65947ZM68.7501 143.75V121.875H71.8752V137.062C71.8858 139.426 72.5499 141.74 73.7939 143.75H68.7501V143.75ZM71.8749 53.5626V84.375H21.8751V18.75H128.125V40.6251H84.8127C77.671 40.6336 71.8837 46.4209 71.8749 53.5626ZM140.625 137.062C140.622 140.754 137.629 143.747 133.937 143.75H84.8124C81.1204 143.747 78.1284 140.754 78.1248 137.062V131.25H140.625V137.062ZM140.625 125H78.1251V62.4999H140.625V125ZM140.625 56.25H78.1251V53.5626C78.1286 49.8706 81.1207 46.8785 84.8127 46.875H133.938C137.63 46.8785 140.622 49.8706 140.625 53.5626V56.25H140.625ZM140.625 42.5438C138.738 41.3897 136.585 40.7437 134.375 40.6687C134.375 40.6687 134.375 40.6406 134.375 40.6251V15.6249C134.375 13.899 132.976 12.4998 131.25 12.4998H18.75C17.0241 12.4998 15.6249 13.899 15.6249 15.6249V87.4998C15.6249 89.2257 17.0241 90.6249 18.75 90.6249H71.8749V96.5625C68.4507 97.3667 66.327 100.795 67.1312 104.219C67.684 106.572 69.5215 108.41 71.8749 108.963V115.625H12.8124C11.25 115.625 9.37503 113.084 9.37503 110.938V9.65947C9.3803 7.77129 10.9149 6.24492 12.8031 6.2502C12.8063 6.2502 12.8092 6.2502 12.8124 6.2502H137.187C139.076 6.23994 140.614 7.76191 140.625 9.6501C140.625 9.65332 140.625 9.65625 140.625 9.65947V42.5438H140.625Z" fill="white"/>
</svg>
