<svg width="150" height="150" viewBox="0 0 150 150" fill="none" xmlns="http://www.w3.org/2000/svg">
<path d="M148.317 99.1921C147.806 94.9218 145.608 91.6077 142.289 89.0108C138.445 86.0062 133.945 84.7687 129.15 84.5718C125.241 84.4124 121.416 84.9936 117.727 86.3343C116.677 86.714 115.645 87.164 114.586 87.5905C114.445 87.3327 114.295 87.089 114.173 86.8312C113.086 84.6093 111.773 82.4858 111.487 79.9405C111.281 78.1312 111.028 76.3218 111.459 74.5358C111.872 72.8155 112.416 71.1233 112.922 69.4218C113.184 68.5452 113.002 68.0577 112.167 67.664C111.877 67.528 111.562 67.4062 111.244 67.3593C109.191 67.064 107.17 67.2327 105.183 67.8093C104.48 68.0155 103.969 68.4093 103.814 69.1874C103.725 69.6327 103.542 70.0593 103.42 70.4999C102.9 72.3327 102.534 74.1983 101.695 75.9421C99.5906 80.3202 97.1953 84.5296 94.7343 88.7108C94.4671 89.1608 94.1906 89.6062 93.8531 90.1546C92.9906 88.3499 92.0718 86.7327 91.7906 84.8296C91.4765 82.6827 91.2281 80.5405 91.7625 78.4077C92.1609 76.8187 92.6812 75.2577 93.1593 73.6921C93.389 72.9468 93.2812 72.5577 92.6062 72.164C92.264 71.9671 91.8796 71.789 91.4953 71.7327C89.3671 71.4187 87.2718 71.5827 85.2234 72.2483C84.5859 72.4546 84.2531 72.8671 84.0562 73.5233C83.4843 75.4593 82.9968 77.4421 82.1953 79.2843C78.9421 86.7374 75.5999 94.153 72.2578 101.564C71.5593 103.111 70.7437 104.606 69.9562 106.111C69.7546 106.495 69.4687 106.828 69.2203 107.189C69.0187 106.955 68.9437 106.791 68.9437 106.631C68.9484 105.68 68.8359 104.695 69.0187 103.776C69.5671 100.992 70.2 98.2171 70.8703 95.4562C71.4187 93.178 72.0609 90.9187 72.6749 88.6499C72.8812 87.8905 72.8859 87.1827 72.3375 86.5452C71.4234 85.4765 69.5109 85.2421 68.3765 86.0671C68.2546 86.1562 68.1093 86.2171 67.8749 86.353C67.9171 85.9921 67.9406 85.7671 67.9734 85.5421C68.2125 83.8077 68.2593 82.0827 67.7859 80.3718C67.1906 78.2437 65.6765 77.0202 63.4687 77.0858C62.4374 77.1187 61.3593 77.2921 60.4078 77.6671C56.4 79.2374 53.3203 82.0171 50.7 85.364C50.4609 85.6687 50.1468 85.9452 49.814 86.128C46.4249 88.0077 43.0218 89.864 39.6234 91.7296C38.3531 92.4233 37.0828 93.1218 35.8406 93.8015C34.8281 92.8312 33.9046 91.828 32.8546 90.9749C29.6578 88.3687 26.4093 85.828 23.1937 83.2499C20.3437 80.9671 17.5781 78.5858 15.464 75.5624C13.889 73.3124 12.8765 70.8515 12.7828 68.0671C12.6609 64.5233 13.664 61.2843 15.4687 58.2655C17.7796 54.4077 20.925 51.314 24.389 48.5062C28.05 45.539 32.0109 43.0218 36.1171 40.7249C41.8593 37.5093 47.7703 34.664 54.1031 32.7843C60.5999 30.8577 67.1859 29.7562 73.9828 30.5249C76.6546 30.8249 79.2468 31.439 81.6328 32.7468C83.4562 33.7452 84.9515 35.053 85.6499 37.1015C86.3343 39.1171 86.3156 41.1562 85.8375 43.1999C84.8718 47.339 82.6031 50.7562 79.7484 53.8077C75.0703 58.8093 69.3609 62.2124 62.9296 64.4624C59.2218 65.7608 55.4062 66.5765 51.4875 66.9046C48.2906 67.1718 45.1593 66.8905 42.1312 65.7749C40.1249 65.039 38.3812 63.9093 36.975 62.2733C36.7218 61.978 36.4031 61.664 35.9343 61.9358C35.4749 62.203 35.3953 62.6437 35.55 63.0843C35.8078 63.8202 36.0421 64.5796 36.4453 65.2358C37.4484 66.8812 38.9156 68.0765 40.5281 69.103C43.6265 71.0718 47.0859 71.7327 50.6765 71.8874C56.1234 72.1218 61.439 71.3108 66.675 69.8483C74.1562 67.7624 80.6578 64.078 85.8749 58.2655C90.2203 53.428 93.3187 47.9624 93.9843 41.3671C94.3078 38.1468 93.9656 34.9921 92.4562 32.0577C90.8203 28.8749 88.2234 26.6812 85.1156 25.0546C80.5968 22.6827 75.7124 21.7499 70.6734 21.478C68.9906 21.478 67.3078 21.478 65.625 21.478C59.5171 21.7733 53.6156 23.0577 47.8781 25.1437C43.5374 26.7233 39.2765 28.5046 35.1421 30.5671C26.1375 35.0671 17.7515 40.4483 10.8656 47.9062C7.43433 51.6233 4.52808 55.7015 2.85933 60.5296C2.37183 61.9452 2.07183 63.4452 1.72026 64.9077C1.69214 65.0296 1.82808 65.1468 1.52808 65.2687C1.52808 65.9577 1.52808 66.6421 1.52808 67.3312C1.82808 67.8608 1.86089 68.3858 1.99683 68.9155C2.88276 72.3515 4.7062 75.3046 6.96558 77.9952C10.1859 81.8296 14.0812 84.914 18.1218 87.8202C21.6234 90.3374 25.1765 92.7983 28.6921 95.2968C29.2968 95.7233 29.8546 96.2202 30.5109 96.7452C29.9484 97.0499 29.475 97.3171 28.9875 97.5655C24.3468 99.9186 19.8843 102.558 15.7687 105.755C13.289 107.681 10.889 109.73 9.19683 112.401C6.47339 116.705 5.50776 121.289 7.53745 126.183C8.13276 127.612 9.03745 128.85 10.3125 129.759C10.725 130.055 11.189 130.35 11.6718 130.462C12.9093 130.753 14.175 130.945 15.4312 131.175C16.6171 131.175 17.7984 131.175 18.9843 131.175C22.9171 130.823 26.4937 129.478 29.7234 127.247C34.7765 123.759 38.1796 119.086 39.6468 113.081C40.7109 108.722 40.7531 104.353 39.5015 100.012C39.3843 99.6093 39.239 99.2155 39.0843 98.8265C38.9296 98.4374 38.7515 98.0577 38.5406 97.5702C41.2218 96.028 43.9125 94.4812 46.5984 92.9343C46.6406 92.9671 46.6781 93.0046 46.7203 93.0374C46.575 93.5155 46.4203 93.9937 46.2843 94.4812C45.3281 97.978 44.6906 101.536 44.9203 105.164C45.164 109.031 46.2421 112.65 48.5062 115.884C50.3343 118.5 54.6984 118.594 56.6437 115.973C57.3328 115.041 58.0031 114.07 58.5046 113.03C59.8171 110.316 61.0359 107.555 62.2875 104.812C62.3437 104.695 62.3906 104.578 62.5078 104.311C62.4187 105.609 62.3109 106.748 62.264 107.892C62.189 109.673 62.2921 111.445 62.9015 113.142C63.4218 114.595 64.3078 115.678 65.9718 115.866C67.1062 115.997 68.0156 115.476 68.8499 114.816C70.1578 113.784 71.2171 112.514 72.0046 111.066C74.2312 106.973 76.5187 102.909 78.539 98.714C80.7234 94.1765 82.6312 89.5077 84.6609 84.8952C84.7734 84.6421 84.8718 84.3843 84.9984 84.0749C85.4765 85.9593 85.814 87.8015 86.4281 89.5499C87.1406 91.5749 88.0265 93.553 88.9921 95.4749C89.4468 96.3843 89.3953 96.9749 88.7625 97.7343C86.1187 100.922 83.5218 104.147 80.9203 107.372C80.3437 108.084 79.7718 108.806 79.2937 109.584C79.0031 110.058 78.8109 110.63 78.7312 111.183C78.5765 112.237 79.2234 113.25 80.3531 113.494C81.3796 113.714 82.4765 113.798 83.5265 113.719C87.1546 113.451 90.4499 112.176 93.3656 110.02C97.139 107.222 98.3531 103.411 97.439 98.8874C97.1906 97.6593 96.7546 96.464 96.3281 95.2827C96.1359 94.7483 96.1265 94.3733 96.4734 93.8765C99.4921 89.5687 102.07 84.9937 104.466 80.3202C104.559 80.1374 104.658 79.9499 104.822 79.753C105.6 83.7983 106.767 87.6937 108.862 91.228C107.794 92.2593 106.734 93.1921 105.778 94.2233C103.669 96.4874 101.841 98.953 100.889 101.953C100.481 103.247 100.162 104.559 100.345 105.947C100.631 108.094 102.389 109.486 104.498 108.998C109.012 107.953 112.912 105.825 115.762 102.056C117.68 99.5202 117.853 96.689 117.052 93.7218C116.831 92.9155 116.569 92.1233 116.287 91.1952C117.403 90.8483 118.491 90.4358 119.611 90.178C125.447 88.8468 131.217 89.0811 136.837 91.1858C140.119 92.414 142.772 94.4765 144.342 97.7155C146.264 101.676 145.2 105.431 141.469 107.934C141.122 108.169 140.723 108.351 140.433 108.642C140.255 108.82 140.152 109.181 140.194 109.425C140.217 109.57 140.602 109.748 140.817 109.748C142.045 109.739 143.039 109.097 143.995 108.436C146.391 106.781 147.97 104.55 148.345 101.62C148.355 101.536 148.233 101.456 148.533 101.376C148.533 100.725 148.533 100.078 148.533 99.4265C148.233 99.3468 148.359 99.2671 148.35 99.1827L148.317 99.1921ZM34.1531 107.114C33.764 112.341 31.3968 116.578 27.525 120.005C25.3453 121.936 22.8515 123.309 19.9406 123.792C18.8859 123.966 17.8078 124.008 16.7812 123.572C15.3234 122.948 14.9953 121.655 14.9671 120.272C14.925 118.073 15.6937 116.086 16.7484 114.197C18.1265 111.731 20.1468 109.851 22.3031 108.098C25.7015 105.333 29.3906 102.989 33.164 100.781C33.2249 100.744 33.3 100.725 33.45 100.664C34.0312 102.82 34.3124 104.948 34.1484 107.119L34.1531 107.114ZM63.6375 84.403C63.3609 86.0718 63.0187 87.7405 62.5312 89.3577C60.8437 94.9546 58.6828 100.383 56.3437 105.731C55.9125 106.72 55.2843 107.625 54.7359 108.562C54.6515 108.708 54.5249 108.834 54.4031 108.956C53.7281 109.626 53.0812 109.589 52.739 108.712C52.3406 107.695 52.0968 106.608 51.8859 105.53C51.7453 104.808 51.7781 104.048 51.7359 103.308C51.7828 98.0437 53.3859 93.253 56.114 88.7999C57.239 86.9624 58.4624 85.214 60.3281 84.0468C60.9046 83.6905 61.5468 83.4046 62.1984 83.2171C63.1921 82.9358 63.8062 83.3999 63.6421 84.3983L63.6375 84.403ZM83.7515 110.03C86.1609 107.217 88.5656 104.409 90.9796 101.587C91.2796 104.723 85.9546 110.981 83.7515 110.03ZM106.842 104.353C106.331 104.644 105.773 104.859 105.248 105.126C104.77 105.375 104.611 105.126 104.597 104.714C104.587 104.433 104.63 104.142 104.705 103.87C105.68 100.425 107.475 97.4905 110.152 95.0999C110.189 95.0624 110.25 95.0483 110.339 95.0015C111.609 98.5546 110.142 102.464 106.837 104.353H106.842Z" fill="white"/>
</svg>
