<svg width="150" height="150" viewBox="0 0 150 150" fill="none" xmlns="http://www.w3.org/2000/svg">
<path d="M95.8562 149.869L140.956 140.112C140.956 140.112 124.681 30.0313 124.55 29.3C124.437 28.575 123.837 28.1 123.231 28.1C122.625 28.1 111.175 27.25 111.175 27.25C111.175 27.25 103.206 19.2875 102.181 18.4312C101.9 18.2 101.712 18.075 101.425 17.9688L95.7125 149.869H95.8562V149.869ZM73.1875 70.6563C73.1875 70.6563 68.125 68.0062 62.1 68.0062C53.0562 68.0062 52.7 73.6688 52.7 75.1375C52.7 82.8375 72.95 85.8562 72.95 104.069C72.95 118.412 63.95 127.569 51.6625 127.569C36.95 127.569 29.5375 118.412 29.5375 118.412L33.575 105.375C33.575 105.375 41.3562 112.038 47.825 112.038C52.0437 112.038 53.9187 108.631 53.9187 106.212C53.9187 96.0937 37.3312 95.625 37.3312 78.9688C37.1187 64.9875 47.15 51.3687 67.5 51.3687C75.3562 51.3687 79.2187 53.625 79.2187 53.625L73.3125 70.5938L73.1875 70.6563V70.6563ZM69.8125 5.1875C70.6625 5.1875 71.5062 5.425 72.3437 6.03125C66.1937 8.9375 59.4437 16.275 56.6687 30.9812C52.5687 32.3125 48.5875 33.5125 44.8625 34.5937C48.1062 23.4375 55.9437 5.25 69.8125 5.25V5.1875ZM77.5312 23.6188V24.4625C72.8187 25.9125 67.6375 27.4875 62.5687 29.0625C65.4812 17.9563 70.9 12.5313 75.6 10.4938C76.8062 13.625 77.5312 17.8438 77.5312 23.6188V23.6188ZM80.9 9.65625C85.2375 10.1187 88.0312 15.075 89.8312 20.625C87.65 21.3375 85.2375 22.0687 82.5937 22.9125V21.3375C82.5937 16.6375 81.9937 12.7687 80.9 9.64375V9.65625V9.65625ZM99.6 17.7125C99.475 17.7125 99.225 17.8438 99.1125 17.8438C99 17.8438 97.3062 18.3125 94.65 19.1563C92.0062 11.45 87.3 4.34375 78.975 4.34375H78.2562C75.8437 1.30625 72.9312 0 70.4062 0C50.9937 0 41.7187 24.2313 38.8125 36.5375C31.35 38.8188 25.9187 40.5125 25.3125 40.75C21.0937 42.0812 20.975 42.2 20.4875 46.1875C20.0187 49.075 9.04999 134.081 9.04999 134.081L93.8062 150L99.6 17.7125Z" fill="white"/>
</svg>
