<svg width="150" height="150" viewBox="0 0 150 150" fill="none" xmlns="http://www.w3.org/2000/svg">
<path d="M62.8079 96.3804L101.913 43.4059C103.207 41.6521 105.602 41.1308 107.508 42.1876C109.224 43.1387 110.066 45.1025 109.633 46.9638L109.441 47.5789L85.2534 108.823C82.6284 115.469 75.1125 118.729 68.466 116.104C67.9443 115.898 67.4366 115.658 66.946 115.386C60.6944 111.921 58.4356 104.044 61.901 97.7922L62.3315 97.0716L62.8079 96.3804L101.913 43.4059L62.8079 96.3804ZM86.5627 79.9858L70.3505 101.948L70.1005 102.337C69.1453 104.061 69.7679 106.232 71.4911 107.187L71.9098 107.385C73.5575 108.035 75.3991 107.373 76.2781 105.899L76.5338 105.379L86.5627 79.9858ZM116.31 46.3374C121.026 50.1581 125.294 54.6927 128.948 59.9122C132.227 64.5939 135.383 70.2627 137.198 74.9019C138.142 77.3127 136.952 80.0318 134.541 80.9752C132.13 81.9185 129.411 80.7289 128.468 78.318C127.86 76.764 127.048 75.0292 126.11 73.2442L113.3 80.6397C111.058 81.9341 108.192 81.166 106.897 78.924C105.711 76.8688 106.257 74.2886 108.083 72.8758L108.613 72.5207L121.227 65.2277L119.787 63.267C117.763 60.6261 115.548 58.2081 113.176 56.0191L115.552 49.9923C115.789 49.3927 115.969 48.7835 116.095 48.1707L116.243 47.2498L116.31 46.3374ZM99.881 36.5795C98.9495 37.1205 98.0909 37.8086 97.34 38.6334L96.6261 39.5035L93.2451 44.0844C88.8591 42.5598 84.3043 41.5733 79.6891 41.1441L79.6876 57.8494C79.6876 60.4382 77.5889 62.5369 75.0001 62.5369C72.627 62.5369 70.6658 60.7735 70.3554 58.4855L70.3126 57.8494L70.3102 41.0414C60.331 41.751 50.4096 45.0892 41.6182 51.245C36.5185 54.8158 32.0721 59.509 28.3761 65.0243L41.3899 72.5374C43.6319 73.8318 44.4001 76.6986 43.1057 78.9406C41.9191 80.9958 39.4113 81.8125 37.2747 80.9373L36.7024 80.6564L23.7387 73.1752C22.9402 74.8391 22.1987 76.552 21.5161 78.3081C20.5782 80.7211 17.8618 81.9169 15.4488 80.979C13.0359 80.0411 11.8401 77.3247 12.7779 74.9118C17.8182 61.944 25.7735 50.8948 36.2409 43.5654C55.5653 30.0343 79.5806 28.1998 99.881 36.5795Z" fill="white"/>
</svg>
