<svg width="481" height="481" viewBox="0 0 481 481" fill="none" xmlns="http://www.w3.org/2000/svg">
<g clip-path="url(#clip0_101_2)">
<path d="M335.273 90.4739C305.412 90.4739 281.204 114.681 281.204 144.542C281.204 174.403 305.411 198.611 335.273 198.611C365.134 198.611 389.342 174.403 389.342 144.542C389.342 114.681 365.134 90.4739 335.273 90.4739ZM335.273 178.037C316.775 178.037 301.779 163.041 301.779 144.543C301.779 126.045 316.775 111.049 335.273 111.049C353.771 111.049 368.767 126.045 368.767 144.543C368.767 163.041 353.771 178.037 335.273 178.037Z" fill="#E1C5BF"/>
<path d="M474.116 13.359C473.142 9.91295 470.446 7.22095 466.993 6.26195C394.503 -13.88 312.029 18.2099 259.576 50.8349C206.662 37.3769 158.178 47.773 126.155 79.579C110.443 95.181 57.183 160.28 53.827 190.544C53.481 193.664 54.576 196.768 56.801 198.979L88.095 230.062C92.048 233.991 98.398 234.05 102.431 230.218L134.598 199.637L278.394 342.459L247.889 374.607C244.042 378.667 244.137 385.051 248.105 388.989L280.258 420.921C283.976 424.644 288.249 423.89 288.627 423.849C319.052 420.519 384.568 367.636 400.275 352.039C432.395 320.14 442.84 271.902 429.204 219.239C473.301 148.885 491.036 72.959 474.116 13.359ZM455.797 24.621C473.744 99.812 432.771 202.48 352.326 282.377C334.495 300.083 315.297 316.117 295.159 330.11L229.954 265.349L148.116 184.065C162.186 164.108 178.295 145.075 196.091 127.399C263.482 60.471 367.359 5.60895 455.797 24.621ZM95.499 208.417L75.236 188.295C82.338 164.199 123.262 111.451 140.652 94.177C163.63 71.355 197.391 61.904 235.425 67.05C216.743 80.537 198.666 95.847 181.595 112.802C161.074 133.183 142.689 155.301 126.92 178.551L95.499 208.417ZM385.78 337.44C368.36 354.74 315.115 395.468 290.868 402.459L269.741 381.478L296.442 353.34C302.459 350.817 345.104 320.092 366.823 296.973C383.394 279.334 399.449 261.827 413.037 243.142C418.306 280.983 408.813 314.563 385.78 337.44Z" fill="#E1C5BF"/>
<path d="M258.373 423.873L272.87 438.47L230.596 480.459L216.1 465.861L258.373 423.873ZM213.03 378.84L170.756 420.823L185.252 435.42L227.527 393.438L213.03 378.84ZM43.48 294.412L57.977 309.01L100.251 267.027L85.755 252.43L43.48 294.412ZM42.295 209.266L0.0200195 251.254L14.517 265.852L56.791 223.863L42.295 209.266Z" fill="#E1C5BF"/>
</g>
<defs>
<clipPath id="clip0_101_2">
<rect width="480.459" height="480.459" fill="white"/>
</clipPath>
</defs>
</svg>
